<svg width="435" height="142" viewBox="0 0 435 142" fill="none" xmlns="http://www.w3.org/2000/svg">
<path d="M92.7549 3.04688V13H91.0459V3.04688H92.7549ZM98.7432 3.04688L94.6963 8.7207H92.2695L92.0371 7.23047H93.7461L96.6445 3.04688H98.7432ZM96.9932 13L93.7734 8.46094L94.8809 7.1416L99.0508 13H96.9932ZM100.765 9.38379V9.22656C100.765 8.69336 100.843 8.19889 100.998 7.74316C101.153 7.28288 101.376 6.88411 101.668 6.54688C101.964 6.20508 102.324 5.94076 102.748 5.75391C103.176 5.5625 103.659 5.4668 104.197 5.4668C104.739 5.4668 105.222 5.5625 105.646 5.75391C106.074 5.94076 106.437 6.20508 106.733 6.54688C107.029 6.88411 107.255 7.28288 107.41 7.74316C107.565 8.19889 107.642 8.69336 107.642 9.22656V9.38379C107.642 9.91699 107.565 10.4115 107.41 10.8672C107.255 11.3229 107.029 11.7217 106.733 12.0635C106.437 12.4007 106.077 12.665 105.653 12.8564C105.229 13.0433 104.748 13.1367 104.211 13.1367C103.668 13.1367 103.183 13.0433 102.754 12.8564C102.331 12.665 101.971 12.4007 101.674 12.0635C101.378 11.7217 101.153 11.3229 100.998 10.8672C100.843 10.4115 100.765 9.91699 100.765 9.38379ZM102.413 9.22656V9.38379C102.413 9.71647 102.447 10.0309 102.515 10.3271C102.584 10.6234 102.691 10.8831 102.837 11.1064C102.982 11.3298 103.169 11.5052 103.397 11.6328C103.625 11.7604 103.896 11.8242 104.211 11.8242C104.516 11.8242 104.78 11.7604 105.004 11.6328C105.231 11.5052 105.418 11.3298 105.564 11.1064C105.71 10.8831 105.817 10.6234 105.885 10.3271C105.958 10.0309 105.995 9.71647 105.995 9.38379V9.22656C105.995 8.89844 105.958 8.58854 105.885 8.29688C105.817 8.00065 105.708 7.73861 105.557 7.51074C105.411 7.28288 105.225 7.10514 104.997 6.97754C104.773 6.84538 104.507 6.7793 104.197 6.7793C103.887 6.7793 103.618 6.84538 103.39 6.97754C103.167 7.10514 102.982 7.28288 102.837 7.51074C102.691 7.73861 102.584 8.00065 102.515 8.29688C102.447 8.58854 102.413 8.89844 102.413 9.22656ZM114.819 11.0039L117.02 5.60352H118.448L115.379 13H114.258L111.196 5.60352H112.624L114.819 11.0039ZM112.2 5.60352V13H110.553V5.60352H112.2ZM117.437 13V5.60352H119.091V13H117.437ZM127.3 5.60352V6.91602H123.649V5.60352H127.3ZM124.039 5.60352V13H122.391V5.60352H124.039ZM128.592 5.60352V13H126.937V5.60352H128.592ZM136.704 5.60352V6.91602H133.095V5.60352H136.704ZM137.996 5.60352V13H136.349V5.60352H137.996ZM132.692 5.60352H134.319L134.121 9.26074C134.093 9.80306 134.038 10.2816 133.956 10.6963C133.879 11.1064 133.774 11.4596 133.642 11.7559C133.51 12.0475 133.348 12.2845 133.157 12.4668C132.965 12.6491 132.742 12.7835 132.487 12.8701C132.232 12.9567 131.944 13 131.625 13H131.113L131.106 11.6465L131.366 11.626C131.534 11.6123 131.68 11.569 131.803 11.4961C131.926 11.4186 132.031 11.3092 132.118 11.168C132.209 11.0267 132.282 10.8444 132.336 10.6211C132.396 10.3978 132.441 10.1335 132.473 9.82812C132.51 9.52279 132.537 9.16732 132.555 8.76172L132.692 5.60352ZM144.407 13.1367C143.86 13.1367 143.366 13.0479 142.924 12.8701C142.486 12.6878 142.113 12.4349 141.803 12.1113C141.497 11.7878 141.263 11.4072 141.099 10.9697C140.935 10.5322 140.853 10.0605 140.853 9.55469V9.28125C140.853 8.70247 140.937 8.17839 141.105 7.70898C141.274 7.23958 141.509 6.83854 141.81 6.50586C142.11 6.16862 142.466 5.91113 142.876 5.7334C143.286 5.55566 143.73 5.4668 144.209 5.4668C144.738 5.4668 145.2 5.55566 145.597 5.7334C145.993 5.91113 146.321 6.16178 146.581 6.48535C146.845 6.80436 147.041 7.1849 147.169 7.62695C147.301 8.06901 147.367 8.55664 147.367 9.08984V9.79395H141.652V8.61133H145.74V8.48145C145.731 8.18522 145.672 7.90723 145.562 7.64746C145.458 7.3877 145.296 7.17806 145.077 7.01855C144.858 6.85905 144.567 6.7793 144.202 6.7793C143.929 6.7793 143.685 6.83854 143.471 6.95703C143.261 7.07096 143.086 7.2373 142.944 7.45605C142.803 7.6748 142.694 7.93913 142.616 8.24902C142.543 8.55436 142.507 8.89844 142.507 9.28125V9.55469C142.507 9.87826 142.55 10.179 142.637 10.457C142.728 10.7305 142.86 10.9697 143.033 11.1748C143.206 11.3799 143.416 11.5417 143.662 11.6602C143.908 11.7741 144.188 11.8311 144.503 11.8311C144.899 11.8311 145.253 11.7513 145.562 11.5918C145.872 11.4323 146.141 11.2067 146.369 10.915L147.237 11.7559C147.078 11.9883 146.87 12.2116 146.615 12.4258C146.36 12.6354 146.048 12.8063 145.679 12.9385C145.314 13.0706 144.89 13.1367 144.407 13.1367ZM151.83 5.60352V13H150.182V5.60352H151.83ZM156.656 5.60352L153.327 10.0537H151.447L151.228 8.56348H152.602L154.598 5.60352H156.656ZM154.728 13L152.5 9.77344L153.798 8.83691L156.895 13H154.728ZM162.103 11.8242C162.372 11.8242 162.613 11.7718 162.827 11.667C163.046 11.5576 163.222 11.4072 163.354 11.2158C163.49 11.0244 163.566 10.8034 163.579 10.5527H165.131C165.122 11.0312 164.981 11.4665 164.707 11.8584C164.434 12.2503 164.071 12.5625 163.62 12.7949C163.169 13.0228 162.67 13.1367 162.123 13.1367C161.558 13.1367 161.066 13.041 160.647 12.8496C160.227 12.6536 159.879 12.3848 159.601 12.043C159.323 11.7012 159.113 11.307 158.972 10.8604C158.835 10.4137 158.767 9.93522 158.767 9.4248V9.18555C158.767 8.67513 158.835 8.19661 158.972 7.75C159.113 7.29883 159.323 6.90234 159.601 6.56055C159.879 6.21875 160.227 5.95215 160.647 5.76074C161.066 5.56478 161.556 5.4668 162.116 5.4668C162.709 5.4668 163.228 5.58529 163.675 5.82227C164.122 6.05469 164.473 6.38053 164.728 6.7998C164.988 7.21452 165.122 7.69759 165.131 8.24902H163.579C163.566 7.97559 163.497 7.72949 163.374 7.51074C163.256 7.28743 163.087 7.1097 162.868 6.97754C162.654 6.84538 162.397 6.7793 162.096 6.7793C161.763 6.7793 161.488 6.84766 161.269 6.98438C161.05 7.11654 160.879 7.29883 160.756 7.53125C160.633 7.75911 160.544 8.0166 160.489 8.30371C160.439 8.58626 160.414 8.88021 160.414 9.18555V9.4248C160.414 9.73014 160.439 10.0264 160.489 10.3135C160.54 10.6006 160.626 10.8581 160.749 11.0859C160.877 11.3092 161.05 11.4893 161.269 11.626C161.488 11.7581 161.765 11.8242 162.103 11.8242ZM172.847 8.69336V9.99219H169.019V8.69336H172.847ZM169.498 5.60352V13H167.85V5.60352H169.498ZM174.037 5.60352V13H172.389V5.60352H174.037ZM176.879 9.38379V9.22656C176.879 8.69336 176.957 8.19889 177.112 7.74316C177.267 7.28288 177.49 6.88411 177.782 6.54688C178.078 6.20508 178.438 5.94076 178.862 5.75391C179.29 5.5625 179.773 5.4668 180.311 5.4668C180.853 5.4668 181.336 5.5625 181.76 5.75391C182.189 5.94076 182.551 6.20508 182.847 6.54688C183.143 6.88411 183.369 7.28288 183.524 7.74316C183.679 8.19889 183.756 8.69336 183.756 9.22656V9.38379C183.756 9.91699 183.679 10.4115 183.524 10.8672C183.369 11.3229 183.143 11.7217 182.847 12.0635C182.551 12.4007 182.191 12.665 181.767 12.8564C181.343 13.0433 180.862 13.1367 180.325 13.1367C179.782 13.1367 179.297 13.0433 178.869 12.8564C178.445 12.665 178.085 12.4007 177.788 12.0635C177.492 11.7217 177.267 11.3229 177.112 10.8672C176.957 10.4115 176.879 9.91699 176.879 9.38379ZM178.527 9.22656V9.38379C178.527 9.71647 178.561 10.0309 178.629 10.3271C178.698 10.6234 178.805 10.8831 178.951 11.1064C179.096 11.3298 179.283 11.5052 179.511 11.6328C179.739 11.7604 180.01 11.8242 180.325 11.8242C180.63 11.8242 180.894 11.7604 181.118 11.6328C181.345 11.5052 181.532 11.3298 181.678 11.1064C181.824 10.8831 181.931 10.6234 181.999 10.3271C182.072 10.0309 182.109 9.71647 182.109 9.38379V9.22656C182.109 8.89844 182.072 8.58854 181.999 8.29688C181.931 8.00065 181.822 7.73861 181.671 7.51074C181.525 7.28288 181.339 7.10514 181.111 6.97754C180.887 6.84538 180.621 6.7793 180.311 6.7793C180.001 6.7793 179.732 6.84538 179.504 6.97754C179.281 7.10514 179.096 7.28288 178.951 7.51074C178.805 7.73861 178.698 8.00065 178.629 8.29688C178.561 8.58854 178.527 8.89844 178.527 9.22656ZM189.798 13.1367C189.251 13.1367 188.757 13.0479 188.314 12.8701C187.877 12.6878 187.503 12.4349 187.193 12.1113C186.888 11.7878 186.653 11.4072 186.489 10.9697C186.325 10.5322 186.243 10.0605 186.243 9.55469V9.28125C186.243 8.70247 186.327 8.17839 186.496 7.70898C186.665 7.23958 186.899 6.83854 187.2 6.50586C187.501 6.16862 187.856 5.91113 188.267 5.7334C188.677 5.55566 189.121 5.4668 189.6 5.4668C190.128 5.4668 190.591 5.55566 190.987 5.7334C191.384 5.91113 191.712 6.16178 191.972 6.48535C192.236 6.80436 192.432 7.1849 192.56 7.62695C192.692 8.06901 192.758 8.55664 192.758 9.08984V9.79395H187.043V8.61133H191.131V8.48145C191.122 8.18522 191.062 7.90723 190.953 7.64746C190.848 7.3877 190.687 7.17806 190.468 7.01855C190.249 6.85905 189.957 6.7793 189.593 6.7793C189.319 6.7793 189.076 6.83854 188.861 6.95703C188.652 7.07096 188.476 7.2373 188.335 7.45605C188.194 7.6748 188.084 7.93913 188.007 8.24902C187.934 8.55436 187.897 8.89844 187.897 9.28125V9.55469C187.897 9.87826 187.941 10.179 188.027 10.457C188.118 10.7305 188.251 10.9697 188.424 11.1748C188.597 11.3799 188.807 11.5417 189.053 11.6602C189.299 11.7741 189.579 11.8311 189.894 11.8311C190.29 11.8311 190.643 11.7513 190.953 11.5918C191.263 11.4323 191.532 11.2067 191.76 10.915L192.628 11.7559C192.468 11.9883 192.261 12.2116 192.006 12.4258C191.751 12.6354 191.438 12.8063 191.069 12.9385C190.705 13.0706 190.281 13.1367 189.798 13.1367ZM200.015 9.38379V9.22656C200.015 8.69336 200.092 8.19889 200.247 7.74316C200.402 7.28288 200.626 6.88411 200.917 6.54688C201.213 6.20508 201.573 5.94076 201.997 5.75391C202.426 5.5625 202.909 5.4668 203.446 5.4668C203.989 5.4668 204.472 5.5625 204.896 5.75391C205.324 5.94076 205.686 6.20508 205.983 6.54688C206.279 6.88411 206.504 7.28288 206.659 7.74316C206.814 8.19889 206.892 8.69336 206.892 9.22656V9.38379C206.892 9.91699 206.814 10.4115 206.659 10.8672C206.504 11.3229 206.279 11.7217 205.983 12.0635C205.686 12.4007 205.326 12.665 204.903 12.8564C204.479 13.0433 203.998 13.1367 203.46 13.1367C202.918 13.1367 202.432 13.0433 202.004 12.8564C201.58 12.665 201.22 12.4007 200.924 12.0635C200.628 11.7217 200.402 11.3229 200.247 10.8672C200.092 10.4115 200.015 9.91699 200.015 9.38379ZM201.662 9.22656V9.38379C201.662 9.71647 201.696 10.0309 201.765 10.3271C201.833 10.6234 201.94 10.8831 202.086 11.1064C202.232 11.3298 202.419 11.5052 202.647 11.6328C202.875 11.7604 203.146 11.8242 203.46 11.8242C203.765 11.8242 204.03 11.7604 204.253 11.6328C204.481 11.5052 204.668 11.3298 204.814 11.1064C204.96 10.8831 205.067 10.6234 205.135 10.3271C205.208 10.0309 205.244 9.71647 205.244 9.38379V9.22656C205.244 8.89844 205.208 8.58854 205.135 8.29688C205.067 8.00065 204.957 7.73861 204.807 7.51074C204.661 7.28288 204.474 7.10514 204.246 6.97754C204.023 6.84538 203.756 6.7793 203.446 6.7793C203.137 6.7793 202.868 6.84538 202.64 6.97754C202.417 7.10514 202.232 7.28288 202.086 7.51074C201.94 7.73861 201.833 8.00065 201.765 8.29688C201.696 8.58854 201.662 8.89844 201.662 9.22656ZM214.636 5.60352V6.91602H210.985V5.60352H214.636ZM211.375 5.60352V13H209.727V5.60352H211.375ZM215.928 5.60352V13H214.273V5.60352H215.928ZM220.725 7.02539V15.8438H219.078V5.60352H220.595L220.725 7.02539ZM225.544 9.2334V9.37695C225.544 9.91471 225.481 10.4137 225.353 10.874C225.23 11.3298 225.045 11.7285 224.799 12.0703C224.558 12.4076 224.259 12.6696 223.904 12.8564C223.548 13.0433 223.138 13.1367 222.673 13.1367C222.213 13.1367 221.81 13.0524 221.463 12.8838C221.121 12.7106 220.832 12.4668 220.595 12.1523C220.358 11.8379 220.167 11.4688 220.021 11.0449C219.88 10.6165 219.779 10.1471 219.72 9.63672V9.08301C219.779 8.54069 219.88 8.0485 220.021 7.60645C220.167 7.16439 220.358 6.78385 220.595 6.46484C220.832 6.14583 221.121 5.89974 221.463 5.72656C221.805 5.55339 222.204 5.4668 222.66 5.4668C223.124 5.4668 223.537 5.55794 223.897 5.74023C224.257 5.91797 224.56 6.17318 224.806 6.50586C225.052 6.83398 225.237 7.23047 225.36 7.69531C225.483 8.1556 225.544 8.66829 225.544 9.2334ZM223.897 9.37695V9.2334C223.897 8.8916 223.865 8.57487 223.801 8.2832C223.737 7.98698 223.637 7.72721 223.5 7.50391C223.364 7.2806 223.188 7.10742 222.974 6.98438C222.764 6.85677 222.511 6.79297 222.215 6.79297C221.924 6.79297 221.673 6.8431 221.463 6.94336C221.254 7.03906 221.078 7.1735 220.937 7.34668C220.796 7.51986 220.686 7.72266 220.609 7.95508C220.531 8.18294 220.477 8.43132 220.445 8.7002V10.0264C220.499 10.3545 220.593 10.6553 220.725 10.9287C220.857 11.2021 221.044 11.4209 221.286 11.585C221.532 11.7445 221.846 11.8242 222.229 11.8242C222.525 11.8242 222.778 11.7604 222.988 11.6328C223.197 11.5052 223.368 11.3298 223.5 11.1064C223.637 10.8786 223.737 10.6165 223.801 10.3203C223.865 10.0241 223.897 9.70964 223.897 9.37695ZM228.031 9.38379V9.22656C228.031 8.69336 228.109 8.19889 228.264 7.74316C228.419 7.28288 228.642 6.88411 228.934 6.54688C229.23 6.20508 229.59 5.94076 230.014 5.75391C230.442 5.5625 230.925 5.4668 231.463 5.4668C232.005 5.4668 232.488 5.5625 232.912 5.75391C233.34 5.94076 233.703 6.20508 233.999 6.54688C234.295 6.88411 234.521 7.28288 234.676 7.74316C234.831 8.19889 234.908 8.69336 234.908 9.22656V9.38379C234.908 9.91699 234.831 10.4115 234.676 10.8672C234.521 11.3229 234.295 11.7217 233.999 12.0635C233.703 12.4007 233.343 12.665 232.919 12.8564C232.495 13.0433 232.014 13.1367 231.477 13.1367C230.934 13.1367 230.449 13.0433 230.021 12.8564C229.597 12.665 229.237 12.4007 228.94 12.0635C228.644 11.7217 228.419 11.3229 228.264 10.8672C228.109 10.4115 228.031 9.91699 228.031 9.38379ZM229.679 9.22656V9.38379C229.679 9.71647 229.713 10.0309 229.781 10.3271C229.85 10.6234 229.957 10.8831 230.103 11.1064C230.248 11.3298 230.435 11.5052 230.663 11.6328C230.891 11.7604 231.162 11.8242 231.477 11.8242C231.782 11.8242 232.046 11.7604 232.27 11.6328C232.497 11.5052 232.684 11.3298 232.83 11.1064C232.976 10.8831 233.083 10.6234 233.151 10.3271C233.224 10.0309 233.261 9.71647 233.261 9.38379V9.22656C233.261 8.89844 233.224 8.58854 233.151 8.29688C233.083 8.00065 232.974 7.73861 232.823 7.51074C232.677 7.28288 232.491 7.10514 232.263 6.97754C232.039 6.84538 231.773 6.7793 231.463 6.7793C231.153 6.7793 230.884 6.84538 230.656 6.97754C230.433 7.10514 230.248 7.28288 230.103 7.51074C229.957 7.73861 229.85 8.00065 229.781 8.29688C229.713 8.58854 229.679 8.89844 229.679 9.22656ZM242.331 2.36328H243.664C243.664 2.76888 243.607 3.10384 243.493 3.36816C243.383 3.62793 243.219 3.84212 243.001 4.01074C242.786 4.1748 242.52 4.30697 242.201 4.40723C241.886 4.50749 241.522 4.59863 241.107 4.68066C240.724 4.7627 240.378 4.89258 240.068 5.07031C239.763 5.24349 239.505 5.4873 239.296 5.80176C239.09 6.11165 238.942 6.51042 238.851 6.99805C238.76 7.48568 238.733 8.0804 238.769 8.78223V9.24707L237.463 9.36328V8.89844C237.463 8.02799 237.543 7.26921 237.703 6.62207C237.862 5.97493 238.088 5.43034 238.379 4.98828C238.676 4.54167 239.027 4.1862 239.432 3.92188C239.842 3.65755 240.298 3.47526 240.799 3.375C241.141 3.30208 241.426 3.22917 241.654 3.15625C241.882 3.07878 242.05 2.98079 242.16 2.8623C242.274 2.73926 242.331 2.57292 242.331 2.36328ZM241.175 6.02051C241.668 6.02051 242.105 6.1071 242.488 6.28027C242.871 6.44889 243.194 6.68587 243.459 6.99121C243.723 7.29655 243.923 7.65658 244.06 8.07129C244.201 8.486 244.272 8.93717 244.272 9.4248V9.5752C244.272 10.0856 244.197 10.5573 244.046 10.9902C243.896 11.4232 243.675 11.8014 243.383 12.125C243.092 12.444 242.734 12.6947 242.31 12.877C241.891 13.0547 241.41 13.1436 240.868 13.1436C240.33 13.1436 239.849 13.0501 239.425 12.8633C239.002 12.6764 238.644 12.4167 238.352 12.084C238.06 11.7467 237.839 11.3525 237.689 10.9014C237.539 10.4502 237.463 9.95801 237.463 9.4248V9.27441C237.459 9.17871 237.484 9.08529 237.539 8.99414C237.598 8.90299 237.669 8.80501 237.751 8.7002C237.833 8.59538 237.906 8.47461 237.969 8.33789C238.197 7.8776 238.466 7.47428 238.776 7.12793C239.086 6.78158 239.439 6.51042 239.836 6.31445C240.237 6.11849 240.683 6.02051 241.175 6.02051ZM240.854 7.32617C240.444 7.32617 240.109 7.42415 239.849 7.62012C239.594 7.81152 239.405 8.06673 239.282 8.38574C239.163 8.70475 239.104 9.05111 239.104 9.4248V9.5752C239.104 9.88053 239.138 10.1699 239.207 10.4434C239.275 10.7168 239.378 10.9583 239.514 11.168C239.656 11.373 239.838 11.5348 240.061 11.6533C240.289 11.7718 240.558 11.8311 240.868 11.8311C241.182 11.8311 241.449 11.7718 241.668 11.6533C241.891 11.5348 242.071 11.373 242.208 11.168C242.349 10.9583 242.451 10.7168 242.515 10.4434C242.584 10.1699 242.618 9.88053 242.618 9.5752V9.4248C242.618 9.14225 242.584 8.87565 242.515 8.625C242.451 8.37435 242.349 8.15332 242.208 7.96191C242.066 7.76595 241.884 7.611 241.661 7.49707C241.437 7.38314 241.169 7.32617 240.854 7.32617ZM246.65 9.38379V9.22656C246.65 8.69336 246.727 8.19889 246.882 7.74316C247.037 7.28288 247.26 6.88411 247.552 6.54688C247.848 6.20508 248.208 5.94076 248.632 5.75391C249.06 5.5625 249.543 5.4668 250.081 5.4668C250.624 5.4668 251.107 5.5625 251.53 5.75391C251.959 5.94076 252.321 6.20508 252.617 6.54688C252.914 6.88411 253.139 7.28288 253.294 7.74316C253.449 8.19889 253.527 8.69336 253.527 9.22656V9.38379C253.527 9.91699 253.449 10.4115 253.294 10.8672C253.139 11.3229 252.914 11.7217 252.617 12.0635C252.321 12.4007 251.961 12.665 251.537 12.8564C251.113 13.0433 250.633 13.1367 250.095 13.1367C249.553 13.1367 249.067 13.0433 248.639 12.8564C248.215 12.665 247.855 12.4007 247.559 12.0635C247.263 11.7217 247.037 11.3229 246.882 10.8672C246.727 10.4115 246.65 9.91699 246.65 9.38379ZM248.297 9.22656V9.38379C248.297 9.71647 248.331 10.0309 248.4 10.3271C248.468 10.6234 248.575 10.8831 248.721 11.1064C248.867 11.3298 249.054 11.5052 249.281 11.6328C249.509 11.7604 249.78 11.8242 250.095 11.8242C250.4 11.8242 250.665 11.7604 250.888 11.6328C251.116 11.5052 251.303 11.3298 251.448 11.1064C251.594 10.8831 251.701 10.6234 251.77 10.3271C251.843 10.0309 251.879 9.71647 251.879 9.38379V9.22656C251.879 8.89844 251.843 8.58854 251.77 8.29688C251.701 8.00065 251.592 7.73861 251.442 7.51074C251.296 7.28288 251.109 7.10514 250.881 6.97754C250.658 6.84538 250.391 6.7793 250.081 6.7793C249.771 6.7793 249.502 6.84538 249.275 6.97754C249.051 7.10514 248.867 7.28288 248.721 7.51074C248.575 7.73861 248.468 8.00065 248.4 8.29688C248.331 8.58854 248.297 8.89844 248.297 9.22656ZM259.903 9.83496H257.538L257.524 8.67285H259.466C259.785 8.67285 260.047 8.64095 260.252 8.57715C260.461 8.51335 260.616 8.41764 260.717 8.29004C260.817 8.15788 260.867 7.99837 260.867 7.81152C260.867 7.65658 260.837 7.52214 260.778 7.4082C260.719 7.28971 260.628 7.19401 260.505 7.12109C260.386 7.04362 260.236 6.98893 260.054 6.95703C259.876 6.92057 259.668 6.90234 259.431 6.90234H258.085V13H256.437V5.60352H259.431C259.905 5.60352 260.332 5.64453 260.71 5.72656C261.093 5.80859 261.418 5.93392 261.687 6.10254C261.956 6.27116 262.161 6.48535 262.303 6.74512C262.448 7.00033 262.521 7.30111 262.521 7.64746C262.521 7.87533 262.471 8.08952 262.371 8.29004C262.275 8.49056 262.132 8.66829 261.94 8.82324C261.749 8.97819 261.514 9.10579 261.236 9.20605C260.958 9.30176 260.639 9.361 260.279 9.38379L259.903 9.83496ZM259.903 13H257.059L257.716 11.7012H259.903C260.195 11.7012 260.436 11.6647 260.628 11.5918C260.819 11.5189 260.96 11.4141 261.052 11.2773C261.147 11.1361 261.195 10.9697 261.195 10.7783C261.195 10.5824 261.15 10.4137 261.058 10.2725C260.967 10.1312 260.826 10.0241 260.635 9.95117C260.448 9.8737 260.204 9.83496 259.903 9.83496H258.023L258.037 8.67285H260.272L260.744 9.12402C261.213 9.15592 261.603 9.25618 261.913 9.4248C262.223 9.59342 262.455 9.80534 262.61 10.0605C262.765 10.3158 262.843 10.5938 262.843 10.8945C262.843 11.2409 262.776 11.5462 262.644 11.8105C262.517 12.0749 262.325 12.2959 262.07 12.4736C261.819 12.6468 261.512 12.779 261.147 12.8701C260.783 12.9567 260.368 13 259.903 13ZM269.834 11.5166V7.98926C269.834 7.72493 269.787 7.49707 269.691 7.30566C269.595 7.11426 269.449 6.96615 269.253 6.86133C269.062 6.75651 268.82 6.7041 268.529 6.7041C268.26 6.7041 268.027 6.74967 267.831 6.84082C267.635 6.93197 267.483 7.05501 267.373 7.20996C267.264 7.36491 267.209 7.54036 267.209 7.73633H265.569C265.569 7.44466 265.639 7.16211 265.781 6.88867C265.922 6.61523 266.127 6.37142 266.396 6.15723C266.665 5.94303 266.986 5.77441 267.36 5.65137C267.733 5.52832 268.153 5.4668 268.618 5.4668C269.174 5.4668 269.666 5.56022 270.094 5.74707C270.527 5.93392 270.867 6.21647 271.113 6.59473C271.363 6.96842 271.489 7.43783 271.489 8.00293V11.291C271.489 11.6283 271.511 11.9313 271.557 12.2002C271.607 12.4645 271.678 12.6947 271.769 12.8906V13H270.08C270.003 12.8223 269.941 12.5967 269.896 12.3232C269.855 12.0452 269.834 11.7764 269.834 11.5166ZM270.074 8.50195L270.087 9.52051H268.905C268.599 9.52051 268.33 9.55013 268.098 9.60938C267.866 9.66406 267.672 9.74609 267.517 9.85547C267.362 9.96484 267.246 10.097 267.168 10.252C267.091 10.4069 267.052 10.5824 267.052 10.7783C267.052 10.9743 267.098 11.1543 267.189 11.3184C267.28 11.4779 267.412 11.6032 267.585 11.6943C267.763 11.7855 267.977 11.8311 268.228 11.8311C268.565 11.8311 268.859 11.7627 269.11 11.626C269.365 11.4847 269.566 11.3138 269.711 11.1133C269.857 10.9082 269.935 10.7145 269.944 10.5322L270.477 11.2637C270.422 11.4505 270.329 11.651 270.197 11.8652C270.065 12.0794 269.891 12.2845 269.677 12.4805C269.468 12.6719 269.215 12.8291 268.918 12.9521C268.627 13.0752 268.289 13.1367 267.907 13.1367C267.424 13.1367 266.993 13.041 266.615 12.8496C266.236 12.6536 265.94 12.3916 265.726 12.0635C265.512 11.7308 265.405 11.3548 265.405 10.9355C265.405 10.5436 265.478 10.1973 265.623 9.89648C265.774 9.59115 265.993 9.33594 266.28 9.13086C266.571 8.92578 266.927 8.77083 267.346 8.66602C267.765 8.55664 268.244 8.50195 268.782 8.50195H270.074ZM279.663 8.69336V9.99219H275.835V8.69336H279.663ZM276.313 5.60352V13H274.666V5.60352H276.313ZM280.853 5.60352V13H279.205V5.60352H280.853ZM285.712 10.5938L288.617 5.60352H290.264V13H288.617V8.00293L285.712 13H284.064V5.60352H285.712V10.5938ZM296.668 13.1367C296.121 13.1367 295.627 13.0479 295.185 12.8701C294.747 12.6878 294.374 12.4349 294.064 12.1113C293.758 11.7878 293.524 11.4072 293.36 10.9697C293.196 10.5322 293.113 10.0605 293.113 9.55469V9.28125C293.113 8.70247 293.198 8.17839 293.366 7.70898C293.535 7.23958 293.77 6.83854 294.071 6.50586C294.371 6.16862 294.727 5.91113 295.137 5.7334C295.547 5.55566 295.991 5.4668 296.47 5.4668C296.999 5.4668 297.461 5.55566 297.858 5.7334C298.254 5.91113 298.582 6.16178 298.842 6.48535C299.106 6.80436 299.302 7.1849 299.43 7.62695C299.562 8.06901 299.628 8.55664 299.628 9.08984V9.79395H293.913V8.61133H298.001V8.48145C297.992 8.18522 297.933 7.90723 297.823 7.64746C297.719 7.3877 297.557 7.17806 297.338 7.01855C297.119 6.85905 296.828 6.7793 296.463 6.7793C296.19 6.7793 295.946 6.83854 295.732 6.95703C295.522 7.07096 295.347 7.2373 295.205 7.45605C295.064 7.6748 294.955 7.93913 294.877 8.24902C294.804 8.55436 294.768 8.89844 294.768 9.28125V9.55469C294.768 9.87826 294.811 10.179 294.898 10.457C294.989 10.7305 295.121 10.9697 295.294 11.1748C295.467 11.3799 295.677 11.5417 295.923 11.6602C296.169 11.7741 296.449 11.8311 296.764 11.8311C297.16 11.8311 297.514 11.7513 297.823 11.5918C298.133 11.4323 298.402 11.2067 298.63 10.915L299.498 11.7559C299.339 11.9883 299.131 12.2116 298.876 12.4258C298.621 12.6354 298.309 12.8063 297.94 12.9385C297.575 13.0706 297.151 13.1367 296.668 13.1367Z" fill="black"/>
<path d="M242.321 70.9999L280 17" stroke="#263973"/>
<path d="M434 16L89.1445 18" stroke="#263973"/>
<path d="M5.99997 139L89.1443 18.0001" stroke="#263973"/>
<circle cx="241" cy="74" r="4" fill="white"/>
<circle cx="7" cy="138" r="4" fill="white"/>
</svg>
